<svg xmlns="http://www.w3.org/2000/svg" xmlns:xlink="http://www.w3.org/1999/xlink" viewBox="0,0,256,256" width="75px" height="75px"><g fill="#ffffff" fill-rule="nonzero" stroke="none" stroke-width="1" stroke-linecap="butt" stroke-linejoin="miter" stroke-miterlimit="10" stroke-dasharray="" stroke-dashoffset="0" font-family="none" font-weight="none" font-size="none" text-anchor="none" style="mix-blend-mode: normal"><g transform="scale(5.12,5.12)"><path d="M25,8c9.389,0 17,7.611 17,17c0,7.548 -4.921,13.944 -11.729,16.163c0.002,-0.006 0.005,-0.016 0.005,-0.016c0,0 -1.147,-0.538 -1.123,-1.498c0.027,-1.056 0,-3.521 0,-4.426c0,-1.553 -0.983,-2.654 -0.983,-2.654c0,0 7.709,0.087 7.709,-8.139c0,-3.174 -1.659,-4.825 -1.659,-4.825c0,0 0.871,-3.388 -0.302,-4.825c-1.315,-0.142 -3.669,1.257 -4.675,1.91c0,0 -1.593,-0.653 -4.244,-0.653c-2.65,0 -4.244,0.653 -4.244,0.653c-1.005,-0.653 -3.36,-2.052 -4.675,-1.91c-1.173,1.437 -0.302,4.825 -0.302,4.825c0,0 -1.659,1.652 -1.659,4.825c0,8.226 7.709,8.139 7.709,8.139c0,0 -0.777,0.878 -0.946,2.168c-0.538,0.183 -1.33,0.408 -1.969,0.408c-1.673,0 -2.946,-1.626 -3.412,-2.379c-0.46,-0.742 -1.403,-1.365 -2.281,-1.365c-0.579,0 -0.861,0.289 -0.861,0.62c0,0.331 0.811,0.562 1.347,1.175c1.129,1.294 1.109,4.202 5.132,4.202c0.437,0 1.329,-0.107 2,-0.198c-0.004,0.916 -0.005,1.882 0.009,2.447c0.024,0.96 -1.123,1.498 -1.123,1.498c0,0 0.003,0.01 0.005,0.016c-6.808,-2.217 -11.729,-8.613 -11.729,-16.161c0,-9.389 7.611,-17 17,-17z"></path></g></g></svg>